# xmcd
#
# Track frame offsets:
#	150
#	15352
#	27622
#	42770
#	56102
#	67002
#	79400
#	96752
#	114052
#
# Disc length: 1771
#
# Revision: 1
# Processed by: cddbd v1.5.1PL0 Copyright (c) Steve Scherf et al.
# Submitted via: uFREEDB 1.6.0
# Normalized: r0:TDELIM( - )
#
DISCID=6e06e909
DTITLE=Various Artist - B
DYEAR=1900
DGENRE=Country
TTITLE0=Pam Tillis - Maybe It Was Memphis
TTITLE1=The Statler Brothers - Put It On The Card
TTITLE2=The Forester Sisters - That makes One Of Us
TTITLE3=Sawyer Brown - The Dirt Road
TTITLE4=Pat Shea - The Lord May Take Me
TTITLE5=Travis Tritt - The Whiskey Ain't Workin'
TTITLE6=Montana Rose - We're Talking Tears
TTITLE7=Conway Twitty - Who Did They Think He Was
TTITLE8=Marty Brown - Wildest Dreams
EXTD=
EXTT0=
EXTT1=
EXTT2=
EXTT3=
EXTT4=
EXTT5=
EXTT6=
EXTT7=
EXTT8=
PLAYORDER=
